<svg width="38" height="38" viewBox="0 0 38 38" fill="none" xmlns="http://www.w3.org/2000/svg">
<g clip-path="url(#clip0_167_11)">
<path d="M19.0004 0L34.6992 7.125H36.8129C37.1279 7.125 37.4299 7.25011 37.6526 7.47281C37.8753 7.69551 38.0004 7.99756 38.0004 8.3125V13.0625C38.0004 13.3774 37.8753 13.6795 37.6526 13.9022C37.4299 14.1249 37.1279 14.25 36.8129 14.25H35.6254V30.875C35.8906 30.8752 36.1481 30.9642 36.3569 31.1277C36.5656 31.2913 36.7136 31.52 36.7773 31.7775L37.9648 36.5275C38.009 36.7024 38.0126 36.8852 37.9753 37.0617C37.938 37.2382 37.8608 37.4039 37.7497 37.546C37.6385 37.6881 37.4963 37.8029 37.3339 37.8816C37.1716 37.9603 36.9933 38.0008 36.8129 38H1.18792C1.00749 38.0008 0.829276 37.9603 0.666912 37.8816C0.504547 37.8029 0.362339 37.6881 0.25117 37.546C0.140001 37.4039 0.0628196 37.2382 0.0255322 37.0617C-0.0117551 36.8852 -0.00815966 36.7024 0.0360434 36.5275L1.22354 31.7775C1.28719 31.52 1.43519 31.2913 1.64395 31.1277C1.85271 30.9642 2.11021 30.8752 2.37542 30.875V14.25H1.18792C0.872974 14.25 0.570929 14.1249 0.348229 13.9022C0.12553 13.6795 0.000418441 13.3774 0.000418441 13.0625V8.3125C0.000418441 7.99756 0.12553 7.69551 0.348229 7.47281C0.570929 7.25011 0.872974 7.125 1.18792 7.125H3.30167L19.0004 0ZM8.97079 7.125H29.0324L19.0004 2.375L8.97079 7.125ZM4.75042 14.25V30.875H7.12542V14.25H4.75042ZM9.50042 14.25V30.875H15.4379V14.25H9.50042ZM17.8129 14.25V30.875H20.1879V14.25H17.8129ZM22.5629 14.25V30.875H28.5004V14.25H22.5629ZM30.8754 14.25V30.875H33.2504V14.25H30.8754ZM35.6254 11.875V9.5H2.37542V11.875H35.6254ZM34.6992 33.25H3.30167L2.70792 35.625H35.2929L34.6992 33.25Z" fill="url(#paint0_linear_167_11)"/>
</g>
<defs>
<linearGradient id="paint0_linear_167_11" x1="19.0004" y1="0" x2="19.0004" y2="38" gradientUnits="userSpaceOnUse">
<stop stop-color="#333333"/>
<stop offset="1" stop-color="#143657"/>
</linearGradient>
<clipPath id="clip0_167_11">
<rect width="38" height="38" fill="white"/>
</clipPath>
</defs>
</svg>
